<?xml version="1.0" encoding="utf-8"?>
<!-- Uploaded to: SVG Repo, www.svgrepo.com, Generator: SVG Repo Mixer Tools -->
<svg fill="#FFF" width="800px" height="800px" viewBox="0 0 32 32" version="1.1" xmlns="http://www.w3.org/2000/svg">
<title>location-arrow</title>
<path d="M30.885 1.116c-0.227-0.226-0.54-0.366-0.886-0.366-0.177 0-0.346 0.037-0.499 0.103l0.008-0.003-28 12c-0.449 0.196-0.758 0.637-0.758 1.149 0 0.628 0.463 1.148 1.067 1.237l0.007 0.001 13.072 1.867 1.867 13.073c0.081 0.554 0.517 0.986 1.067 1.060l0.006 0.001c0.049 0.007 0.106 0.012 0.164 0.012h0c0.512-0 0.953-0.309 1.145-0.75l0.003-0.008 12-28c0.064-0.145 0.101-0.315 0.101-0.493 0-0.345-0.14-0.657-0.365-0.883l0 0zM18.607 25.41l-1.37-9.587c-0.081-0.55-0.51-0.98-1.054-1.060l-0.007-0.001-9.587-1.37 21.029-9.013z"></path>
</svg>